<?xml version="1.0" encoding="utf-8"?>
<!-- Generator: Adobe Illustrator 26.0.0, SVG Export Plug-In . SVG Version: 6.00 Build 0)  -->
<svg version="1.1" id="Capa_1" xmlns="http://www.w3.org/2000/svg" xmlns:xlink="http://www.w3.org/1999/xlink" x="0px" y="0px"
	 viewBox="0 0 201.19 209.36" style="enable-background:new 0 0 201.19 209.36;" xml:space="preserve">
<style type="text/css">
	.st0{fill:#39FF14;}
</style>
<path d="M35.86,136.14c-3.84,0-7.68,0-11.78,0c0-19.89,0-39.61,0-59.77c3.91,0,7.84,0,11.78,0l-0.1-0.11c0,20,0,39.99,0,59.99
	L35.86,136.14z"/>
<path d="M167.5,76.37c3.84,0,7.68,0,11.78,0c0,19.89,0,39.61,0,59.77c-3.91,0-7.84,0-11.78,0l0.1,0.11c0-20,0-39.99,0-59.99
	L167.5,76.37z"/>
<path d="M131.57,172.07c0,3.84,0,7.68,0,11.78c-19.89,0-39.61,0-59.77,0c0-3.91,0-7.84,0-11.78l-0.11,0.1c20,0,39.99,0,59.99,0
	L131.57,172.07z"/>
<path d="M71.8,40.43c0-3.84,0-7.68,0-11.78c19.89,0,39.61,0,59.77,0c0,3.91,0,7.84,0,11.78l0.11-0.1c-20,0-39.99,0-59.99,0
	L71.8,40.43z"/>
<path d="M131.57,40.43c7.84,0,15.67,0,23.95,0c0,4.1,0,8.04,0,11.98l0.11-0.1c-7.93,0-15.85,0-23.95,0c0-4.28,0-8.13,0-11.98
	L131.57,40.43z"/>
<path d="M35.86,76.37c0-7.84,0-15.67,0-23.95c4.1,0,8.04,0,11.98,0l-0.1-0.11c0,7.93,0,15.85,0,23.95c-4.28,0-8.13,0-11.98,0
	L35.86,76.37z"/>
<path d="M155.52,52.41c3.85,0,7.69,0,11.98,0c0,8.1,0,16.03,0,23.96l0.1-0.11c-3.94,0-7.87,0-11.98,0c0-8.28,0-16.12,0-23.95
	L155.52,52.41z"/>
<path d="M47.84,52.41c0-3.85,0-7.69,0-11.98c8.1,0,16.03,0,23.96,0l-0.11-0.1c0,3.94,0,7.87,0,11.98c-8.28,0-16.12,0-23.95,0
	L47.84,52.41z"/>
<path d="M47.84,160.09c-3.85,0-7.69,0-11.98,0c0-8.1,0-16.03,0-23.95l-0.1,0.11c3.94,0,7.87,0,11.98,0c0,8.28,0,16.12,0,23.95
	L47.84,160.09z"/>
<path d="M167.5,136.14c0,7.84,0,15.67,0,23.95c-4.1,0-8.04,0-11.98,0l0.1,0.11c0-7.93,0-15.85,0-23.95c4.28,0,8.13,0,11.98,0
	L167.5,136.14z"/>
<path d="M71.8,172.07c-7.84,0-15.68,0-23.96,0c0-4.11,0-8.05,0-11.98l-0.1,0.11c7.93,0,15.85,0,23.95,0c0,4.28,0,8.13,0,11.98
	L71.8,172.07z"/>
<path d="M155.53,160.09c0,3.85,0,7.69,0,11.98c-8.1,0-16.03,0-23.96,0l0.11,0.1c0-3.94,0-7.87,0-11.98c8.28,0,16.12,0,23.95,0
	L155.53,160.09z"/>
<g>
	<path class="st0" d="M155.63,76.26V52.3h-23.96V40.33H71.69V52.3H47.73v23.96H35.76v59.99h11.97v23.95h23.96v11.98h59.98V160.2
		h23.96v-23.95h11.97V76.26H155.63z M143.35,88.22h-11.67v0.11h-0.1v12.01h-11.74v0.09h-0.1v11.88h-11.87v0.1h-0.11v11.74H95.75
		v0.11h-0.1v11.77H83.62v0.09h-0.1c-0.01,3.81-0.01,7.64-0.01,11.75H71.78v-11.63h-0.11v-0.11H59.8v-11.87h-0.1v-0.11H48.05v-11.66
		H59.7v11.66h0.1v0.11h11.87v11.87h0.11v0.11c3.92-0.04,7.83-0.08,11.74-0.12v-0.09h0.1v-11.77h12.03v-0.11h0.1v-11.74h12.01v-0.1
		h0.11c0.01-3.9,0.01-7.79,0.01-11.88h11.86v-0.09h0.1c0.01-3.88,0.01-7.76,0.01-12.01h11.73v-0.11h0.1V76.58h11.67V88.22z"/>
	<rect x="131.68" y="76.58" class="st0" width="11.67" height="11.64"/>
	<path class="st0" d="M131.58,88.33v12.01h-11.74c0.01-3.88,0.01-7.76,0.01-12.01H131.58z"/>
	<path class="st0" d="M119.74,100.43v11.88h-11.87c0.01-3.9,0.01-7.79,0.01-11.88H119.74z"/>
	<rect x="95.75" y="112.41" class="st0" width="12.01" height="11.74"/>
	<rect x="83.62" y="124.26" class="st0" width="12.03" height="11.77"/>
	<path class="st0" d="M83.52,136.12c-0.01,3.81-0.01,7.64-0.01,11.75H71.78v-11.63C75.7,136.2,79.61,136.16,83.52,136.12z"/>
	<rect x="59.8" y="124.26" class="st0" width="11.87" height="11.87"/>
	<rect x="48.05" y="112.49" class="st0" width="11.65" height="11.66"/>
</g>
<g>
	<path d="M150.28,75.84c0,5,0,10,0,15.81c-5.25,0-10.35,0-15.45-0.01c-0.01-0.01,0.16,0.14,0.16,0.14c0-5.11,0-10.21,0-15.8
		c5.23,0,10.33,0,15.43,0C150.42,75.98,150.28,75.84,150.28,75.84z"/>
	<path d="M119.39,107.35c0-5.07,0-10.14,0-15.45c5.28,0,10.35,0,15.44,0.01c0.01,0.01-0.15-0.13-0.15-0.13
		c0.01,4.91,0.01,9.81,0.01,15.45c-5.41,0-10.43,0-15.45-0.01C119.23,107.22,119.39,107.35,119.39,107.35z"/>
	<path d="M56.68,122.63c-5.08,0-10.16,0-15.59,0c0-5.16,0-10.15,0-15.48c4.94,0,9.94,0,15.45,0c0,5.22,0,10.42,0,15.62L56.68,122.63
		z"/>
	<path d="M103.78,122.58c0-4.87,0-9.74,0-15.11c5.22,0,10.34,0,15.46,0c0.01,0-0.15-0.13-0.15-0.13c0.01,4.87,0.01,9.74,0.01,15.1
		c-5.46,0-10.45,0-15.45,0L103.78,122.58z"/>
	<path d="M57.11,122.48c4.96,0,9.93,0,15.45,0c0,5.3,0,10.38,0,15.45l0.14-0.14c-4.96,0-9.92,0-15.45,0c0-5.3,0-10.37,0-15.45
		C57.25,122.34,57.11,122.48,57.11,122.48z"/>
	<path d="M72.7,138.05c5.19-0.05,10.39-0.1,15.59-0.15c0.01,0.01-0.16-0.14-0.16-0.14c0,5.03,0,10.05,0,15.46c-4.82,0-9.76,0-15.3,0
		c0-5.04,0-10.18,0-15.32C72.84,137.91,72.7,138.05,72.7,138.05z"/>
	<path d="M103.51,122.52c0,4.87,0,9.74,0,15.12c-5.23,0-10.34,0-15.46,0c-0.01,0,0.15,0.13,0.15,0.13
		c-0.01-4.87-0.01-9.73-0.01-15.11c5.46,0,10.45,0,15.45,0C103.64,122.65,103.51,122.52,103.51,122.52z"/>
</g>
</svg>
