<svg id="Capa_1" data-name="Capa 1" xmlns="http://www.w3.org/2000/svg" viewBox="0 0 100 100"><defs><style>.cls-1{fill:#39ff14;}.cls-2{fill:#fff;}</style></defs><path class="cls-1" d="M37.22,90.71H33.74q-9.06,0-13.48-4t-4.42-12V59.64a13.2,13.2,0,0,0-.51-3.83A6.21,6.21,0,0,0,13.52,53a8.57,8.57,0,0,0-3.43-1.78,20.28,20.28,0,0,0-5.38-.61h-2V44.48h2A24.31,24.31,0,0,0,10.3,44a7.78,7.78,0,0,0,3.38-1.6,5.48,5.48,0,0,0,1.69-2.74,14.28,14.28,0,0,0,.47-3.94V25.29a22,22,0,0,1,.94-6.64,12,12,0,0,1,3.08-5,14,14,0,0,1,5.54-3.2,26.84,26.84,0,0,1,8.34-1.12h3.48v6.13H34.45q-10.91,0-10.9,9.87v10.2q0,10.69-9.91,12.06,10,.91,10,12v15q0,10,10.81,10h2.77Z"/><path class="cls-1" d="M62.73,9.29h3.48q9.08,0,13.48,4t4.42,12V35.41a12.86,12.86,0,0,0,.52,3.83,6.11,6.11,0,0,0,1.8,2.85,8.62,8.62,0,0,0,3.46,1.77,20,20,0,0,0,5.4.62h2v6.09h-2a24.56,24.56,0,0,0-5.61.53,7.85,7.85,0,0,0-3.41,1.6,5.45,5.45,0,0,0-1.69,2.73,14.8,14.8,0,0,0-.47,4V74.71a21.74,21.74,0,0,1-.94,6.64,12.07,12.07,0,0,1-3,5,13.8,13.8,0,0,1-5.55,3.2,27,27,0,0,1-8.36,1.12H62.73V84.58h2.82q10.86,0,10.86-9.87V59.55q0-10.68,9.91-12-10-1-10-12.06v-10q0-10-10.76-10H62.73Z"/><path class="cls-2" d="M35,63.07v7.55H27.42V59.29h3.77V51.81H35V44.26h3.77V33h3.78V25.44h3.77V21.67h7.54v3.77h3.7V33h3.77V44.26h3.78v7.55h3.77v7.48h3.77V70.62H65.07V63.07H61.29V59.36H38.73v3.71Zm7.55-18.81v7.55h15V44.26H53.75V33H46.28V44.26Z"/></svg>